<?xml version="1.0" encoding="UTF-8"?>
<!DOCTYPE svg PUBLIC "-//W3C//DTD SVG 1.1//EN" "http://www.w3.org/Graphics/SVG/1.1/DTD/svg11.dtd">
<svg xmlns="http://www.w3.org/2000/svg" version="1.1" width="83px" height="57px"
    style="shape-rendering:geometricPrecision; text-rendering:geometricPrecision; image-rendering:optimizeQuality; fill-rule:evenodd; clip-rule:evenodd"
    xmlns:xlink="http://www.w3.org/1999/xlink">
    <g>
        <path style="opacity:1" fill="#fefffe"
            d="M -0.5,49.5 C -0.5,49.1667 -0.5,48.8333 -0.5,48.5C 6.4795,41.8549 13.4795,35.1882 20.5,28.5C 13.8123,21.1457 6.81233,14.1457 -0.5,7.5C -0.5,7.16667 -0.5,6.83333 -0.5,6.5C 1.79663,4.70587 3.9633,2.70587 6,0.5C 15.1667,9.66667 24.3333,18.8333 33.5,28C 24.3333,37.1667 15.1667,46.3333 6,55.5C 3.9633,53.2941 1.79663,51.2941 -0.5,49.5 Z" />
    </g>
    <g>
        <path style="opacity:1" fill="#fefffe"
            d="M 82.5,48.5 C 82.5,51.1667 82.5,53.8333 82.5,56.5C 67.1667,56.5 51.8333,56.5 36.5,56.5C 36.5,53.8333 36.5,51.1667 36.5,48.5C 51.8333,48.5 67.1667,48.5 82.5,48.5 Z" />
    </g>
</svg>